<svg width="585" height="184" viewBox="0 0 585 184" fill="none" xmlns="http://www.w3.org/2000/svg">
<path fill-rule="evenodd" clip-rule="evenodd" d="M493.961 0.960938H402.922V183.039H493.961L493.961 46.4804C493.961 71.6201 514.341 91.9999 539.48 91.9999C564.62 91.9999 585 71.6201 585 46.4804C585 21.3407 564.62 0.960938 539.48 0.960938C514.341 0.960938 493.961 21.3407 493.961 46.4804L493.961 0.960938Z" fill="white"/>
<path fill-rule="evenodd" clip-rule="evenodd" d="M247.397 0.960938H338.436H338.436C362.005 0.961053 381.39 18.8729 383.721 41.8263C383.876 43.3566 383.956 44.9092 383.956 46.4804V46.5181V183.039H201.878V46.549C201.878 46.5261 201.878 46.5033 201.878 46.4804C201.878 21.3407 222.257 0.960938 247.397 0.960938C247.397 0.960938 247.397 0.960938 247.397 0.960938Z" fill="white"/>
<path fill-rule="evenodd" clip-rule="evenodd" d="M0.833313 0.960938H46.3528C71.4925 0.960938 91.8723 21.3407 91.8723 46.4804C91.8723 21.3407 112.252 0.960938 137.392 0.960938H182.911L182.911 46.4804L182.911 137.519L182.911 183.039H91.8723H0.833313V137.519V46.4804V0.960938Z" fill="white"/>
</svg>
